<?xml version="1.0" encoding="utf-8"?>
<!-- Generator: Adobe Illustrator 23.0.5, SVG Export Plug-In . SVG Version: 6.00 Build 0)  -->
<svg version="1.1" id="Capa_1" xmlns="http://www.w3.org/2000/svg" xmlns:xlink="http://www.w3.org/1999/xlink" x="0px" y="0px"
	 viewBox="0 0 1080 1080" style="enable-background:new 0 0 1080 1080;" xml:space="preserve">
<style type="text/css">
	.st0{fill:#6461FE;}
</style>
<g>
	<path class="st0" d="M327.7,532.6c1,0.8,2.3,1.6,3.4,2.4c1.2,0.8,2.4,1.6,3.6,2.4c2.4,1.6,4.9,3.2,7.4,4.7c5,3.1,10,6.1,15.1,9
		c5.1,2.9,10.3,5.7,15.5,8.4c5.2,2.7,10.5,5.3,15.8,7.8c21.3,10,43.4,18.5,66,25.3c22.6,6.9,45.7,12.1,69,15.6
		c11.7,1.7,23.4,3,35.2,3.9c11.8,0.9,23.6,1.3,35.4,1.2c23.7-0.1,47.3-2.1,70.7-5.9c11.7-2,23.3-4.2,34.8-7.1l4.3-1
		c1.4-0.4,2.9-0.8,4.3-1.1l8.6-2.3l8.5-2.5l4.3-1.3l4.2-1.4l8.5-2.8l8.4-3l4.2-1.5c1.4-0.5,2.8-1.1,4.2-1.6l8.3-3.2
		c2.8-1.1,5.5-2.3,8.2-3.4c2.7-1.2,5.5-2.3,8.2-3.5c5.4-2.5,10.9-4.9,16.2-7.5c21.4-10.4,42.1-22.2,62.1-35.2
		c-19.7,13.4-40.2,25.7-61.4,36.6c-5.3,2.8-10.7,5.3-16,7.9c-2.7,1.3-5.4,2.5-8.1,3.7c-2.7,1.2-5.4,2.5-8.2,3.6l-8.3,3.5
		c-1.4,0.6-2.7,1.2-4.1,1.7l-4.2,1.6l-8.4,3.2l-8.4,3l-4.2,1.5l-4.3,1.4l-8.5,2.8l-8.6,2.5c-1.4,0.4-2.9,0.9-4.3,1.2l-4.3,1.1
		c-11.5,3.2-23.2,5.7-35,7.9c-23.5,4.4-47.5,6.9-71.4,7.6c-12,0.4-24,0.2-36-0.4c-12-0.6-24-1.6-35.9-3.1
		c-23.8-3-47.5-7.8-70.6-14.3c-23.2-6.5-45.9-14.6-67.9-24.3c-5.5-2.4-11-5-16.4-7.6c-5.4-2.6-10.8-5.4-16.1-8.2
		c-5.3-2.9-10.6-5.8-15.8-8.9c-2.6-1.6-5.2-3.1-7.8-4.8c-1.3-0.8-2.6-1.6-3.9-2.5c-1.3-0.9-2.5-1.7-3.9-2.7L327.7,532.6z"/>
</g>
<g>
	<polygon class="st0" points="335.8,542.8 235.5,617 327.6,532.8 	"/>
</g>
<g>
	<path class="st0" d="M314.7,385.1c1.4-0.9,2.7-1.7,4-2.6c1.3-0.8,2.7-1.6,4-2.4c2.7-1.6,5.3-3.1,8-4.6c5.4-3,10.8-5.9,16.3-8.6
		c11-5.5,22.1-10.6,33.5-15.3c22.6-9.4,45.9-17.2,69.5-23.4c47.3-12.4,96.3-18.3,145.1-16.8c12.2,0.4,24.4,1.2,36.5,2.5
		c12.1,1.3,24.2,3,36.2,5.3l4.5,0.8l4.5,0.9l8.9,1.9c5.9,1.4,11.9,2.7,17.7,4.4c11.8,3,23.4,6.7,34.9,10.6
		c46,15.8,89.4,38.5,129.5,65.7c-40.7-26.3-84.5-48-130.5-62.7c-11.5-3.6-23.1-7-34.9-9.8c-5.8-1.5-11.8-2.7-17.7-3.9l-8.9-1.7
		l-4.4-0.8l-4.5-0.7c-11.9-2-23.9-3.4-35.9-4.4c-12-1.1-24-1.6-36.1-1.7c-48.2-0.5-96.3,6.4-142.4,19.6
		c-23.1,6.6-45.7,14.8-67.7,24.4c-11,4.8-21.8,10-32.3,15.6c-5.3,2.8-10.5,5.7-15.6,8.7c-2.6,1.5-5.1,3-7.6,4.6
		c-1.3,0.8-2.5,1.6-3.7,2.4c-1.2,0.8-2.5,1.6-3.6,2.4L314.7,385.1z"/>
</g>
<g>
	<polygon class="st0" points="322.1,395.3 229.9,311.2 330.2,385.4 	"/>
</g>
</svg>
