<?xml version="1.0" encoding="utf-8"?>
<!-- Generator: Adobe Illustrator 23.0.5, SVG Export Plug-In . SVG Version: 6.00 Build 0)  -->
<svg version="1.1" id="Capa_1" xmlns="http://www.w3.org/2000/svg" xmlns:xlink="http://www.w3.org/1999/xlink" x="0px" y="0px"
	 viewBox="0 0 1080 1080" style="enable-background:new 0 0 1080 1080;" xml:space="preserve">
<style type="text/css">
	.st0{fill:none;stroke:#000000;stroke-width:3.4294;stroke-miterlimit:10;}
</style>
<circle class="st0" cx="490" cy="362.7" r="105.3"/>
<path class="st0" d="M339.1,682.8h308.8c0,0-82.4-61.8-81.7-183.3c0,0-14.3-2.1-21.1,0.6c0,0-53.3,26.4-115.7,0
	c0,0-114.5-18.5-126.7,110.5C302.7,610.5,291.4,682,339.1,682.8z"/>
<path class="st0" d="M701.7,450.1c0,0,10.9-4.7,23,0l95.3,37.8c0,0,10,2.2,10.7,13.7c0,0,10.7,126.4-105.6,180.1c0,0-10.1,7.1-24,0
	c0,0-105.4-39.5-106.3-172.3c0,0-4-15.9,15.6-23.5L701.7,450.1z"/>
</svg>
