<?xml version="1.0" encoding="utf-8"?>
<!-- Generator: Adobe Illustrator 23.0.5, SVG Export Plug-In . SVG Version: 6.00 Build 0)  -->
<svg version="1.1" id="Capa_1" xmlns="http://www.w3.org/2000/svg" xmlns:xlink="http://www.w3.org/1999/xlink" x="0px" y="0px"
	 viewBox="0 0 1080 1080" style="enable-background:new 0 0 1080 1080;" xml:space="preserve">
<style type="text/css">
	.st0{fill:#FFFFFF;}
	.st1{fill:none;stroke:#FFFFFF;stroke-width:5.6744;stroke-miterlimit:10;}
</style>
<g>
	<g>
		<path class="st0" d="M548.9,677.1c-28.5,0-57,0.6-85.5-0.2c-26.8-0.8-39.1-13.3-41.7-39.7c-5-52.3,39.4-91.3,91.4-83.1
			c22.6,3.6,46.8,2.8,69.5-0.7c52.7-8.3,100.1,41.3,86.7,93.1c-5,19.4-17.1,30.6-37.8,30.6c-27.5,0.1-55.1,0-82.6,0
			C548.9,677,548.9,677.1,548.9,677.1z"/>
		<path class="st0" d="M545.9,535.6c-41.2,0-71.5-29.3-72.1-69.4c-0.6-41.4,30.5-74,71.1-74.6c40.9-0.6,73,30.9,73.5,72.1
			C619,505.7,588.8,535.6,545.9,535.6z"/>
		<path class="st0" d="M386.9,617.6c-29.6,0.1-39.7-6.7-42.8-26.2c-4.6-29,6.1-52.9,29.3-56.4c21.1-3.2,43.2-2.5,64.5,0
			c16.6,1.9,17.1,9.8,5.7,23.3c-10.6,12.6-22.1,25.5-28.7,40.3C408.1,614,398.8,619.6,386.9,617.6z"/>
		<path class="st0" d="M748.6,582.6c0.8,16-3.9,29.7-23.3,34c-24.7,5.6-37.2-0.5-48.3-19.8c-8.2-14.2-18.3-27.9-29.7-39.6
			c-12.5-12.7-7.6-20.6,5.8-22c22.3-2.3,45.3-3,67.4,0.1C740,538.1,748.9,556.2,748.6,582.6z"/>
		<path class="st0" d="M404,433.1c23.9-0.7,42.2,15.9,42.9,39c0.8,25.2-17.1,44.8-40.9,44.6c-21.4-0.2-41.6-19.8-42.7-41.2
			C362.3,454.2,382,433.7,404,433.1z"/>
		<path class="st0" d="M729.1,474.7c-0.7,22.6-22.7,43-45,41.9c-22.6-1.1-39-19.8-38.6-43.9c0.4-23.3,18.2-40,42.2-39.7
			C709.5,433.3,729.7,453.6,729.1,474.7z"/>
	</g>
	<path d="M399.8,747.6"/>
	<path class="st1" d="M351,561.2c-2.2-11.7-16.8-98.9,45-171.7c9.5-11.2,63.9-72.9,153.8-72.1c93.2,0.8,147.3,68,153.8,76.3
		c57.1,73.5,38.6,157,36,167.5"/>
</g>
</svg>
