<svg version="1.1" xmlns="http://www.w3.org/2000/svg" xmlns:xlink="http://www.w3.org/1999/xlink" style="enable-background:new 0 0 1080 1080;" xml:space="preserve" width="802" height="802"><rect id="backgroundrect" width="100%" height="100%" x="0" y="0" fill="none" stroke="none" style="" class=""/>
<style type="text/css">
	.st0{fill:#FFFFFF;}
	.st1{fill:none;stroke:#FFFFFF;stroke-width:5.6744;stroke-miterlimit:10;}
</style>

<g class="currentLayer" style=""><title>Layer 1</title><g id="svg_1" class="">
	<g id="svg_2">
		<path class="st0" d="M405.4980163574219,730.243109703064 c-53.39482498168945,0 -106.7896499633789,1.1294358968734741 -160.18447875976562,-0.3764786124229431 c-50.209869384765625,-1.5059144496917725 -73.25395202636719,-25.03582763671875 -78.12506103515625,-74.73100280761719 c-9.367512702941895,-98.44915008544922 73.81600952148438,-171.86248779296875 171.23814392089844,-156.42684936523438 c42.34115982055664,6.776614665985107 87.67992401123047,5.270700454711914 130.20843505859375,-1.3176751136779785 c98.73358917236328,-15.623862266540527 187.53761291503906,77.74282836914062 162.43267822265625,175.2507781982422 c-9.367512702941895,36.51842498779297 -32.036895751953125,57.601226806640625 -70.81839752197266,57.601226806640625 c-51.52132034301758,0.18823930621147156 -103.22998809814453,0 -154.75131225585938,0 C405.4980163574219,730.054877281189 405.4980163574219,730.243109703064 405.4980163574219,730.243109703064 z" id="svg_3"/>
		<path class="st0" d="M399.87750244140625,463.88446712493896 c-77.18830871582031,0 -133.9554443359375,-55.15411376953125 -135.07952880859375,-130.63807678222656 c-1.1241016387939453,-77.93107604980469 57.14183044433594,-139.29708862304688 133.20603942871094,-140.426513671875 c76.62625885009766,-1.1294358968734741 136.76568603515625,58.16594314575195 137.7024383544922,135.7205352783203 C536.8305053710938,407.60098934173584 480.250732421875,463.88446712493896 399.87750244140625,463.88446712493896 z" id="svg_4"/>
		<path class="st0" d="M101.99063110351562,618.2407293319702 c-55.4556770324707,0.18823930621147156 -74.3780517578125,-12.612032890319824 -80.1859130859375,-49.31869888305664 c-8.618111610412598,-54.58939743041992 11.428365707397461,-99.5785903930664 54.89362335205078,-106.1669692993164 c39.530906677246094,-6.02365779876709 80.93531799316406,-4.705982685089111 120.8409194946289,0 c31.100143432617188,3.5765466690063477 32.036895751953125,18.447452545166016 10.678964614868164,43.85975646972656 c-19.859128952026367,23.71815299987793 -41.4044075012207,48.00102233886719 -53.769527435302734,75.86043548583984 C141.7088165283203,611.4641180038452 124.28523254394531,622.0054998397827 101.99063110351562,618.2407293319702 z" id="svg_5"/>
		<path class="st0" d="M779.6364135742188,552.3569402694702 c1.4988020658493042,30.118288040161133 -7.306660175323486,55.907073974609375 -43.652610778808594,64.0013656616211 c-46.275516510009766,10.541400909423828 -69.69429779052734,-0.9411965012550354 -90.49017333984375,-37.27138137817383 c-15.36272144317627,-26.72998046875 -34.28509521484375,-52.51876449584961 -55.643028259277344,-74.54276275634766 c-23.41878318786621,-23.906391143798828 -14.238619804382324,-38.77729797363281 10.866315841674805,-41.41264724731445 c41.77910614013672,-4.329504013061523 84.86966705322266,-5.647179126739502 126.27407836914062,0.18823930621147156 C763.5243530273438,468.5904607772827 780.1985473632812,502.6618413925171 779.6364135742188,552.3569402694702 z" id="svg_6"/>
		<path class="st0" d="M134.02745056152344,270.93924617767334 c44.776710510253906,-1.3176751136779785 79.06181335449219,29.9300479888916 80.3732681274414,73.413330078125 c1.4988020658493042,47.43630599975586 -32.036895751953125,84.33120727539062 -76.62625885009766,83.95472717285156 c-40.09295654296875,-0.3764786124229431 -77.93770599365234,-37.27138137817383 -79.99856567382812,-77.55459594726562 C55.902503967285156,310.65775203704834 92.81051635742188,272.0687017440796 134.02745056152344,270.93924617767334 z" id="svg_7"/>
		<path class="st0" d="M743.1030883789062,349.2468023300171 c-1.31145179271698,42.542083740234375 -42.52851104736328,80.94290161132812 -84.3076171875,78.87226867675781 c-42.34115982055664,-2.0706324577331543 -73.06660461425781,-37.27138137817383 -72.31719970703125,-82.63705444335938 c0.7494010329246521,-43.85975646972656 34.097747802734375,-75.29572296142578 79.06181335449219,-74.73100280761719 C706.3825073242188,271.31571102142334 744.227294921875,309.5282964706421 743.1030883789062,349.2468023300171 z" id="svg_8"/>
	</g>
	<path d="M126.1587142944336,862.9517889022827 " id="svg_9"/>
	<path class="st1" d="M34.73194885253906,512.0737981796265 c-4.121706008911133,-22.023998260498047 -31.474842071533203,-186.16867065429688 84.3076171875,-323.2068786621094 c17.798274993896484,-21.082801818847656 119.7168197631836,-137.22645568847656 288.14471435546875,-135.7205352783203 c174.61044311523438,1.5059144496917725 275.9669494628906,128.0027313232422 288.14471435546875,143.6265869140625 c106.97699737548828,138.3558807373047 72.31719970703125,295.53570556640625 67.44609069824219,315.30084228515625 " id="svg_10"/>
</g></g></svg>